<mxfile host="app.diagrams.net" modified="2023-07-25T11:07:39.236Z" agent="Mozilla/5.0 (Windows NT 10.0; Win64; x64) AppleWebKit/537.36 (KHTML, like Gecko) Chrome/114.0.0.0 Safari/537.36" etag="FdQIqngRNUkkXUSAzhzz" version="21.6.5" type="device">
  <diagram name="Página-1" id="0Suhuodj3YVB-7kr4Ami">
    <mxGraphModel dx="1500" dy="747" grid="1" gridSize="10" guides="1" tooltips="1" connect="1" arrows="1" fold="1" page="1" pageScale="1" pageWidth="827" pageHeight="1169" math="0" shadow="0">
      <root>
        <mxCell id="0" />
        <mxCell id="1" parent="0" />
        <mxCell id="mcPhJXjr74Fi777epzgo-8" style="edgeStyle=orthogonalEdgeStyle;rounded=0;orthogonalLoop=1;jettySize=auto;html=1;endArrow=none;endFill=0;" edge="1" parent="1" source="mcPhJXjr74Fi777epzgo-1" target="mcPhJXjr74Fi777epzgo-3">
          <mxGeometry relative="1" as="geometry" />
        </mxCell>
        <mxCell id="mcPhJXjr74Fi777epzgo-1" value="Pessoa" style="rounded=0;whiteSpace=wrap;html=1;" vertex="1" parent="1">
          <mxGeometry x="160" y="370" width="120" height="60" as="geometry" />
        </mxCell>
        <mxCell id="mcPhJXjr74Fi777epzgo-2" value="CNH" style="rounded=0;whiteSpace=wrap;html=1;" vertex="1" parent="1">
          <mxGeometry x="550" y="270" width="120" height="60" as="geometry" />
        </mxCell>
        <mxCell id="mcPhJXjr74Fi777epzgo-5" style="edgeStyle=orthogonalEdgeStyle;rounded=0;orthogonalLoop=1;jettySize=auto;html=1;entryX=0;entryY=0.5;entryDx=0;entryDy=0;endArrow=none;endFill=0;" edge="1" parent="1" source="mcPhJXjr74Fi777epzgo-3" target="mcPhJXjr74Fi777epzgo-4">
          <mxGeometry relative="1" as="geometry">
            <Array as="points">
              <mxPoint x="500" y="400" />
              <mxPoint x="500" y="500" />
            </Array>
          </mxGeometry>
        </mxCell>
        <mxCell id="mcPhJXjr74Fi777epzgo-6" style="edgeStyle=orthogonalEdgeStyle;rounded=0;orthogonalLoop=1;jettySize=auto;html=1;exitX=1;exitY=0.5;exitDx=0;exitDy=0;endArrow=none;endFill=0;" edge="1" parent="1" source="mcPhJXjr74Fi777epzgo-3" target="mcPhJXjr74Fi777epzgo-2">
          <mxGeometry relative="1" as="geometry">
            <Array as="points">
              <mxPoint x="500" y="400" />
              <mxPoint x="500" y="300" />
            </Array>
          </mxGeometry>
        </mxCell>
        <mxCell id="mcPhJXjr74Fi777epzgo-13" style="edgeStyle=orthogonalEdgeStyle;rounded=0;orthogonalLoop=1;jettySize=auto;html=1;exitX=1;exitY=0.5;exitDx=0;exitDy=0;entryX=0;entryY=0.5;entryDx=0;entryDy=0;endArrow=none;endFill=0;" edge="1" parent="1" source="mcPhJXjr74Fi777epzgo-3" target="mcPhJXjr74Fi777epzgo-12">
          <mxGeometry relative="1" as="geometry" />
        </mxCell>
        <mxCell id="mcPhJXjr74Fi777epzgo-3" value="Possui" style="rhombus;whiteSpace=wrap;html=1;" vertex="1" parent="1">
          <mxGeometry x="374" y="360" width="80" height="80" as="geometry" />
        </mxCell>
        <mxCell id="mcPhJXjr74Fi777epzgo-4" value="Email" style="rounded=0;whiteSpace=wrap;html=1;" vertex="1" parent="1">
          <mxGeometry x="550" y="470" width="120" height="60" as="geometry" />
        </mxCell>
        <mxCell id="mcPhJXjr74Fi777epzgo-7" value="&lt;div&gt;Construa a modelagem que represente pessoas e seus dados, observando que:&lt;/div&gt;&lt;div&gt;&lt;br&gt;&lt;/div&gt;&lt;div&gt;- uma pessoa pode ter vários telefones e vários emails, porém, pode possuir somente uma CNH.&lt;/div&gt;&lt;div&gt;&lt;br&gt;&lt;/div&gt;&lt;div&gt;DQL&lt;/div&gt;&lt;div&gt;&lt;br&gt;&lt;/div&gt;&lt;div&gt;- listar as pessoas em ordem alfabética reversa, mostrando seus telefones, seus e-mails e suas CNHs&lt;/div&gt;" style="text;html=1;align=center;verticalAlign=middle;resizable=0;points=[];autosize=1;strokeColor=none;fillColor=none;" vertex="1" parent="1">
          <mxGeometry x="120" y="100" width="570" height="110" as="geometry" />
        </mxCell>
        <mxCell id="mcPhJXjr74Fi777epzgo-9" value="N" style="text;html=1;align=center;verticalAlign=middle;resizable=0;points=[];autosize=1;strokeColor=none;fillColor=none;fontSize=18;" vertex="1" parent="1">
          <mxGeometry x="510" y="500" width="40" height="40" as="geometry" />
        </mxCell>
        <mxCell id="mcPhJXjr74Fi777epzgo-10" value="1" style="text;html=1;align=center;verticalAlign=middle;resizable=0;points=[];autosize=1;strokeColor=none;fillColor=none;fontSize=18;" vertex="1" parent="1">
          <mxGeometry x="285" y="400" width="30" height="40" as="geometry" />
        </mxCell>
        <mxCell id="mcPhJXjr74Fi777epzgo-11" value="1" style="text;html=1;align=center;verticalAlign=middle;resizable=0;points=[];autosize=1;strokeColor=none;fillColor=none;fontSize=18;" vertex="1" parent="1">
          <mxGeometry x="520" y="300" width="30" height="40" as="geometry" />
        </mxCell>
        <mxCell id="mcPhJXjr74Fi777epzgo-12" value="Telefone" style="rounded=0;whiteSpace=wrap;html=1;" vertex="1" parent="1">
          <mxGeometry x="550" y="370" width="120" height="60" as="geometry" />
        </mxCell>
        <mxCell id="mcPhJXjr74Fi777epzgo-14" value="N" style="text;html=1;align=center;verticalAlign=middle;resizable=0;points=[];autosize=1;strokeColor=none;fillColor=none;fontSize=18;" vertex="1" parent="1">
          <mxGeometry x="510" y="400" width="40" height="40" as="geometry" />
        </mxCell>
      </root>
    </mxGraphModel>
  </diagram>
</mxfile>
